<svg width="146" height="42" viewBox="0 0 146 42" fill="none" xmlns="http://www.w3.org/2000/svg">
<path d="M4.83201 14.7179L3.77203 0V14.7179L9.77857 20.641V25.4872L7.48196 28.8974L14.0185 42L20.555 28.8974L18.6117 25.4872V20.1026L24.2649 14.7179L23.3816 0V14.7179L17.5517 20.1026V25.4872L19.495 28.8974L14.0185 40.3846L8.36527 28.8974L11.0152 25.4872V20.1026L4.83201 14.7179Z" fill="#2A292B"/>
<path d="M6.75736 19.3535L0 13.6298L3.57742 18.236V20.8798L6.75736 24.6463V19.3535Z" fill="#2A292B"/>
<path d="M21.3468 19.2391L27 14.3929L24.5267 17.8545L24.1734 21.034L21.3468 24.2647V19.2391Z" fill="#2A292B"/>
<path d="M39.864 35C39.7787 35 39.7253 34.9467 39.704 34.84L35.288 12.856C35.2667 12.7707 35.3093 12.728 35.416 12.728H39.032C39.1173 12.728 39.1707 12.7707 39.192 12.856L41.816 27.512L44.376 12.856C44.3973 12.7707 44.4507 12.728 44.536 12.728H48.12C48.2267 12.728 48.2693 12.7707 48.248 12.856L43.896 34.84C43.8747 34.9467 43.8213 35 43.736 35H39.864ZM50.2838 35C50.1771 35 50.1238 34.9467 50.1238 34.84L50.1558 12.856C50.1558 12.7707 50.1984 12.728 50.2838 12.728H53.8678C53.9531 12.728 53.9958 12.7707 53.9958 12.856L54.0278 34.84C54.0278 34.9467 53.9851 35 53.8998 35H50.2838ZM57.1305 35C56.9598 35 56.8745 34.9253 56.8745 34.776L56.8425 12.984C56.8425 12.8133 56.9278 12.728 57.0985 12.728H59.9785L65.3865 25.336L65.2265 12.984C65.2265 12.8133 65.3225 12.728 65.5145 12.728H68.6825C68.8105 12.728 68.8745 12.8133 68.8745 12.984L68.9065 34.808C68.9065 34.936 68.8532 35 68.7465 35H65.9305L60.3945 23.224L60.6185 34.744C60.6185 34.9147 60.5225 35 60.3305 35H57.1305ZM77.5743 35.32C76.4009 35.32 75.3343 35.032 74.3743 34.456C73.4356 33.8587 72.6889 33.0693 72.1343 32.088C71.5796 31.1067 71.3023 30.008 71.3023 28.792L71.3343 18.808C71.3343 17.6347 71.6009 16.568 72.1343 15.608C72.6889 14.6267 73.4356 13.848 74.3743 13.272C75.3343 12.6747 76.4009 12.376 77.5743 12.376C78.7476 12.376 79.8036 12.664 80.7423 13.24C81.6809 13.816 82.4276 14.5947 82.9823 15.576C83.5369 16.536 83.8143 17.6133 83.8143 18.808V20.28C83.8143 20.3653 83.7716 20.408 83.6863 20.408H80.1023C80.0169 20.408 79.9743 20.3653 79.9743 20.28V18.808C79.9743 18.104 79.7396 17.496 79.2703 16.984C78.8223 16.472 78.2569 16.216 77.5743 16.216C76.8063 16.216 76.2196 16.4827 75.8143 17.016C75.4089 17.528 75.2063 18.1253 75.2063 18.808V28.792C75.2063 29.5813 75.4303 30.2213 75.8783 30.712C76.3476 31.2027 76.9129 31.448 77.5743 31.448C78.2569 31.448 78.8223 31.1813 79.2703 30.648C79.7396 30.0933 79.9743 29.4747 79.9743 28.792V27.32C79.9743 27.2347 80.0169 27.192 80.1023 27.192H83.7183C83.8036 27.192 83.8463 27.2347 83.8463 27.32V28.792C83.8463 30.008 83.5583 31.1067 82.9823 32.088C82.4276 33.0693 81.6809 33.8587 80.7423 34.456C79.8036 35.032 78.7476 35.32 77.5743 35.32ZM92.2618 35.32C91.1311 35.32 90.0858 35.032 89.1258 34.456C88.1658 33.8587 87.3978 33.0693 86.8218 32.088C86.2671 31.1067 85.9898 30.0293 85.9898 28.856L86.0538 12.856C86.0538 12.7707 86.0964 12.728 86.1818 12.728H89.7658C89.8511 12.728 89.8938 12.7707 89.8938 12.856V28.856C89.8938 29.5813 90.1178 30.2 90.5658 30.712C91.0351 31.2027 91.6004 31.448 92.2618 31.448C92.9444 31.448 93.5098 31.2027 93.9578 30.712C94.4271 30.2 94.6618 29.5813 94.6618 28.856V12.856C94.6618 12.7707 94.7044 12.728 94.7898 12.728H98.3738C98.4591 12.728 98.5018 12.7707 98.5018 12.856L98.5658 28.856C98.5658 30.0507 98.2778 31.1387 97.7018 32.12C97.1471 33.1013 96.3898 33.88 95.4298 34.456C94.4911 35.032 93.4351 35.32 92.2618 35.32ZM101.221 35C101.135 35 101.093 34.9467 101.093 34.84L101.125 12.888C101.125 12.7813 101.178 12.728 101.285 12.728H104.837C104.943 12.728 104.997 12.7813 104.997 12.888L104.965 31.064H111.557C111.663 31.064 111.717 31.1173 111.717 31.224V34.84C111.717 34.9467 111.663 35 111.557 35H101.221ZM119.294 35.32C118.142 35.32 117.086 35.032 116.126 34.456C115.187 33.8587 114.43 33.08 113.854 32.12C113.278 31.1387 112.99 30.0613 112.99 28.888L113.022 18.744C113.022 17.5707 113.299 16.504 113.854 15.544C114.43 14.584 115.198 13.816 116.158 13.24C117.118 12.664 118.163 12.376 119.294 12.376C120.446 12.376 121.491 12.664 122.43 13.24C123.368 13.816 124.115 14.584 124.67 15.544C125.246 16.504 125.534 17.5707 125.534 18.744L125.566 28.888C125.566 30.0613 125.278 31.1387 124.702 32.12C124.147 33.08 123.39 33.8587 122.43 34.456C121.491 35.032 120.446 35.32 119.294 35.32ZM119.294 31.448C119.934 31.448 120.488 31.192 120.958 30.68C121.448 30.1467 121.694 29.5493 121.694 28.888L121.662 18.744C121.662 18.04 121.438 17.4427 120.99 16.952C120.542 16.4613 119.976 16.216 119.294 16.216C118.632 16.216 118.067 16.4613 117.598 16.952C117.128 17.4213 116.894 18.0187 116.894 18.744V28.888C116.894 29.592 117.128 30.2 117.598 30.712C118.067 31.2027 118.632 31.448 119.294 31.448Z" fill="#2A292B"/>
</svg>
