<svg xmlns="http://www.w3.org/2000/svg" data-name="Layer 1" viewBox="0 0 5000 3000" id="amazon-pay"><path fill="#f8991d" fill-rule="evenodd" d="M2085.25,1714.51c-159.68,117.86-391.17,180.5-590.52,180.5-279.37,0-530.95-103.26-721.33-275.16-14.94-13.51-1.61-31.93,16.36-21.49,205.39,119.52,459.4,191.5,721.75,191.5,177,0,371.51-36.72,550.53-112.64,27-11.45,49.63,17.78,23.21,37.29Z"></path><path fill="#f8991d" fill-rule="evenodd" d="M2151.69,1638.67c-20.44-26.16-135-12.4-186.48-6.23-15.6,1.85-18-11.76-4-21.63,91.41-64.2,241.18-45.66,258.58-24.16,17.53,21.68-4.6,171.84-90.25,243.49-13.19,11-25.72,5.13-19.87-9.42,19.28-48.13,62.44-155.89,42-182Z"></path><path fill="#333e47" fill-rule="evenodd" d="M1968.84 1157.3v-62.37a15.41 15.41 0 0115.82-15.79l279.58 0c8.94 0 16.12 6.51 16.12 15.75v53.5c-.09 9-7.64 20.68-21 39.26l-144.84 206.78c53.76-1.26 110.62 6.8 159.48 34.24 11 6.19 14 15.36 14.83 24.36v66.56c0 9.16-10.05 19.77-20.59 14.25-86-45.08-200.24-50-295.4.56-9.74 5.16-19.9-5.3-19.9-14.48v-63.26c0-10.13.2-27.44 10.4-42.88L2131.09 1173H1985c-8.93 0-16.11-6.37-16.17-15.72zM949 1546.92H864a16.05 16.05 0 01-15.23-14.39L848.8 1096c0-8.74 7.33-15.71 16.41-15.71l79.21 0a16 16 0 0115.46 14.68v57h1.6c20.64-55.12 59.54-80.86 111.94-80.86 53.18 0 86.55 25.74 110.37 80.86 20.64-55.12 67.49-80.86 117.5-80.86 35.73 0 74.63 14.71 98.45 47.78 27 36.75 21.46 90 21.46 136.88l-.09 275.49c0 8.7-7.33 15.71-16.42 15.71h-84.93c-8.55-.56-15.26-7.31-15.26-15.68l0-231.45c0-18.34 1.59-64.27-2.39-81.72-6.34-29.42-25.4-37.7-50-37.7-20.65 0-42.08 13.79-50.82 35.84s-7.94 58.77-7.94 83.58v231.42c0 8.7-7.34 15.71-16.4 15.71h-85c-8.55-.56-15.28-7.31-15.28-15.68l-.09-231.45c0-48.68 7.94-120.31-52.39-120.31-61.14 0-58.75 69.79-58.75 120.31l0 231.42c0 8.7-7.35 15.71-16.4 15.71zM2521.81 1160.18c-62.69 0-66.66 85.41-66.66 138.7s-.79 167.19 65.9 167.19c65.92 0 69.08-91.86 69.08-147.88 0-36.74-1.6-80.84-12.72-115.75-9.52-30.32-28.59-42.26-55.6-42.26zm-.76-89.12c126.25 0 194.52 108.42 194.52 246.22 0 133.17-75.41 238.84-194.52 238.84-123.87 0-191.36-108.43-191.36-243.45 0-136 68.28-241.61 191.36-241.61zM2879.3 1546.92h-84.76c-8.51-.56-15.26-7.31-15.26-15.68l-.14-436.71c.73-8 7.78-14.24 16.34-14.24l78.88 0a16.22 16.22 0 0115.13 12.23v66.78h1.6c23.84-59.73 57.15-88.2 115.92-88.2 38.1 0 75.42 13.78 99.24 51.46 22.23 34.9 22.23 93.69 22.23 135.94v274.71c-.94 7.73-7.89 13.75-16.29 13.75h-85.27a16 16 0 01-15.14-13.75v-237c0-47.78 5.57-117.61-53.19-117.61-20.65 0-39.7 13.77-49.24 34.9-11.91 26.65-13.51 53.28-13.51 82.71v235a16.28 16.28 0 01-16.54 15.71zM1831.71 1545.82c-5.61 5.06-13.73 5.4-20.09 2-28.24-23.47-33.3-34.32-48.76-56.67-46.68 47.55-79.75 61.83-140.23 61.83-71.59 0-127.3-44.2-127.3-132.57 0-69.05 37.4-116 90.7-139 46.14-20.26 110.6-23.93 160-29.47v-11.05c0-20.26 1.59-44.18-10.34-61.68-10.37-15.65-30.25-22.1-47.76-22.1-32.45 0-61.27 16.62-68.37 51.07-1.48 7.67-7.06 15.27-14.75 15.66l-82.46-9c-7-1.56-14.7-7.15-12.7-17.78 18.71-98.62 106.79-129.36 186.85-130.19h6.3c41 .5 93.3 11.73 125.16 42.33 41.4 38.66 37.4 90.21 37.4 146.4v132.48c0 39.88 16.57 57.35 32.11 78.83 5.44 7.75 6.66 16.94-.28 22.61-17.36 14.56-48.23 41.38-65.21 56.48l-.22-.19zM1746 1338.44c0 33.16.79 60.76-15.93 90.23-13.53 23.92-35 38.66-58.88 38.66-32.61 0-51.71-24.86-51.71-61.68 0-72.44 65-85.62 126.52-85.62v18.41zM716.7 1545.82c-5.62 5.06-13.75 5.4-20.1 2-28.25-23.47-33.32-34.32-48.74-56.67-46.71 47.55-79.77 61.83-140.25 61.83-71.6 0-127.3-44.2-127.3-132.57 0-69.05 37.39-116 90.7-139 46.14-20.26 110.61-23.93 159.93-29.47v-11.05c0-20.26 1.6-44.18-10.34-61.68-10.35-15.65-30.25-22.1-47.74-22.1-32.44 0-61.29 16.62-68.36 51.07-1.47 7.67-7.07 15.27-14.77 15.66l-82.44-9c-7-1.56-14.72-7.15-12.7-17.78 18.67-98.62 106.76-129.36 186.83-130.19h6.31c41 .5 93.32 11.73 125.18 42.33 41.37 38.66 37.4 90.21 37.4 146.4v132.48c0 39.88 16.54 57.35 32.08 78.83 5.44 7.75 6.67 16.94-.26 22.61-17.38 14.56-48.25 41.38-65.24 56.48l-.19-.19zm-85.76-207.38c0 33.16.8 60.76-15.92 90.23-13.5 23.92-35 38.66-58.88 38.66-32.61 0-51.71-24.86-51.71-61.68 0-72.44 65-85.62 126.51-85.62v18.41zM4291.19 1703.52v-32.08c0-9.12 4.49-15.4 14-14.84 17.79 2.52 42.92 5 60.76 1.34 23.31-4.83 40-21.37 49.91-44 13.94-31.88 23.16-57.57 29-74.44l-177-438.34c-3-7.43-3.87-21.25 11-21.25h61.85c11.81 0 16.59 7.49 19.24 14.84l128.28 356 122.45-356c2.52-7.29 7.53-14.84 19.24-14.84h58.33c14.74 0 13.92 13.79 11 21.25l-175.51 452c-22.74 60.18-53 156-121.14 172.66-34.18 8.9-77.29 5.68-102.59-4.91-6.4-3.2-8.84-11.76-8.84-17.42zM4208.68 1520.18A14.91 14.91 0 014193.8 1535h-43.61a17 17 0 01-17.06-14.85l-4.39-29.68a254.83 254.83 0 01-71.34 42.27c-51.29 19.93-110.43 23.22-160.56-7.56-36.26-22.27-55.5-65.76-55.5-110.62 0-34.72 10.71-69.12 34.42-94.13 31.66-34.14 77.51-50.9 132.93-50.9 33.44 0 81.32 3.93 116.17 15.32v-59.74c0-60.76-25.58-87.06-93-87.06-51.55 0-91 7.79-145.85 24.84-8.78.3-13.93-6.38-13.93-14.55v-34c0-8.19 7-16.09 14.54-18.5 39.19-17.08 94.7-27.74 153.72-29.69 76.94 0 168.38 17.35 168.38 135.69v318.35zM4124.86 1433V1342.8c-29.29-8-77.74-11.31-96.48-11.31-29.62 0-62.06 7-79 25.24-12.67 13.36-18.4 32.55-18.4 51.1 0 24 8.31 48 27.68 59.94 22.52 15.31 57.46 13.44 90.3 4.12 31.54-9 61.15-24.8 75.88-38.94zM3565.53 1139.42c96.78 0 123.15 76.1 123.15 163.24.53 58.77-10.26 111.13-40.68 141.13-22.78 22.44-48.22 28.54-86.46 28.54-34.08 0-78.91-17.74-112.4-42.5V1180.67c34.87-26.77 79.32-41.25 116.39-41.25zM3434.3 1719.15h-58.43a14.89 14.89 0 01-14.85-14.83V1095.56a14.88 14.88 0 0114.85-14.84h44.73a17 17 0 0117 14.84l4.71 31.87c41.89-37.18 95.81-61 147.2-61 143.89 0 191.21 118.55 191.21 241.85 0 131.91-72.39 237.9-194.78 237.9a204.86 204.86 0 01-136.82-52.07v210.22a14.88 14.88 0 01-14.84 14.83z"></path></svg>