<svg xmlns="http://www.w3.org/2000/svg" width="100" height="100" id="cod"><g transform="translate(1152.349 -297.504) scale(.80319)"><rect width="101.851" height="40.714" x="-73.879" y="317.729" fill="#f9f9f9" fill-rule="evenodd" stroke="#000" stroke-linecap="round" stroke-linejoin="round" stroke-width=".8" rx="3.599" ry="3.599" transform="translate(-1348.255 94.513)"></rect><g style="line-height:125%;-inkscape-font-specification:'Segoe WP Black, Ultra-Bold'"><path style="text-align:start;line-height:125%;-inkscape-font-specification:'Segoe WP Black, Ultra-Bold'" fill="#4d4d4d" d="M-1379.734 429.297a5.687 5.687 0 0 1-.957.255 8.464 8.464 0 0 1-1.564.138c-.782 0-1.457-.117-2.025-.35-.569-.233-1.037-.548-1.405-.945a3.802 3.802 0 0 1-.82-1.383 5.18 5.18 0 0 1-.266-1.672c0-.695.112-1.334.337-1.914.225-.581.547-1.082.967-1.504.419-.42.926-.748 1.521-.981.595-.233 1.263-.35 2.003-.35.512 0 .952.032 1.322.095.37.064.666.124.887.181v2.448a2.89 2.89 0 0 0-.328-.162 3.482 3.482 0 0 0-.436-.15 4.4 4.4 0 0 0-1.144-.154c-.307 0-.601.044-.884.132-.282.088-.53.226-.742.414a2.02 2.02 0 0 0-.51.718c-.126.29-.19.636-.19 1.037 0 .34.052.649.154.93.102.28.252.519.448.717.196.198.437.353.72.463.285.11.607.166.967.166.209 0 .408-.015.598-.046a4.156 4.156 0 0 0 .982-.28c.137-.057.259-.112.365-.165zm6.896.24-.387-1.62h-2.625l-.418 1.62h-2.865l3.031-8.799h3.289l2.853 8.798zm-1.49-5.897a7.14 7.14 0 0 1-.068-.297l-.055-.282a3.601 3.601 0 0 1-.037-.24c-.01-.071-.014-.128-.018-.168h-.06c-.01.081-.03.208-.065.38-.035.172-.077.358-.126.558l-.638 2.442h1.681zm11.816 3.234c0 .2-.024.41-.074.628a2.32 2.32 0 0 1-.252.642 2.57 2.57 0 0 1-.472.592c-.197.186-.443.35-.74.494a4.445 4.445 0 0 1-1.055.337 7.24 7.24 0 0 1-1.414.123c-.286 0-.56-.015-.822-.043a8.353 8.353 0 0 1-.73-.11 6.763 6.763 0 0 1-1.099-.314v-2.41a6.097 6.097 0 0 0 1.221.614c.234.085.475.154.724.207.25.054.497.08.743.08.204 0 .37-.018.497-.055a.895.895 0 0 0 .303-.144.476.476 0 0 0 .157-.197.575.575 0 0 0 .043-.217.568.568 0 0 0-.11-.35 1.082 1.082 0 0 0-.307-.267 3.005 3.005 0 0 0-.473-.227 17.074 17.074 0 0 0-.613-.224 4.918 4.918 0 0 1-1.065-.51 3.252 3.252 0 0 1-.718-.622 2.134 2.134 0 0 1-.401-.715 2.556 2.556 0 0 1-.123-.791c0-.434.09-.823.27-1.169.18-.345.434-.64.764-.883a3.61 3.61 0 0 1 1.184-.559c.46-.128.972-.193 1.537-.193a10.014 10.014 0 0 1 1.558.117c.209.032.395.07.558.11l.442.11v2.24c-.139-.07-.296-.14-.472-.212a5.793 5.793 0 0 0-1.218-.34 4.384 4.384 0 0 0-.703-.056c-.323 0-.584.056-.782.166-.198.11-.297.262-.297.454 0 .098.02.186.064.264.043.078.111.15.205.218.094.067.22.137.377.208.158.072.351.15.58.237.393.147.755.305 1.086.475.331.17.618.364.86.583.24.219.429.467.564.745.134.278.202.6.202.964zm6.908 2.662v-3.282h-3.043v3.282h-2.65v-8.798h2.65v3.258h3.043v-3.258h2.65v8.798zm16.246-4.423c0 .7-.114 1.33-.343 1.893a4.264 4.264 0 0 1-.948 1.441 4.18 4.18 0 0 1-1.417.92 4.712 4.712 0 0 1-1.752.323 4.735 4.735 0 0 1-1.709-.307c-.533-.205-1-.498-1.398-.88a4.129 4.129 0 0 1-.945-1.396c-.231-.548-.347-1.166-.347-1.853s.11-1.317.331-1.89c.221-.572.53-1.064.927-1.475.397-.411.872-.73 1.426-.957a4.788 4.788 0 0 1 1.832-.34c.63 0 1.21.104 1.742.315.532.21.99.511 1.374.902.385.39.685.865.902 1.423.217.559.325 1.185.325 1.88zm-2.81.073c0-.376-.038-.71-.113-1a2.31 2.31 0 0 0-.32-.733 1.407 1.407 0 0 0-.49-.45 1.32 1.32 0 0 0-.635-.154 1.51 1.51 0 0 0-.767.184 1.516 1.516 0 0 0-.521.497 2.207 2.207 0 0 0-.295.73 4.145 4.145 0 0 0-.092.89c0 .409.045.757.135 1.046.09.288.21.523.362.705.151.182.325.315.522.399.196.084.4.126.613.126a1.416 1.416 0 0 0 1.108-.537c.149-.182.268-.414.358-.696.09-.283.135-.618.135-1.007zm10.21 4.35-3.105-4.245c-.13-.18-.245-.345-.343-.494a8.951 8.951 0 0 1-.258-.414h-.024a26.525 26.525 0 0 1 .038 1.46v3.693h-2.454v-8.798h2.503l2.976 4.037c.037.054.082.117.135.19a11.665 11.665 0 0 1 .31.455c.046.073.082.139.107.196h.024a4.037 4.037 0 0 1-.034-.482v-4.396h2.454v8.798zm-46.027 11.197c0 .687-.11 1.31-.329 1.865a4.018 4.018 0 0 1-.926 1.42c-.399.391-.88.693-1.442.906a5.262 5.262 0 0 1-1.874.319h-3.724v-8.798h3.644c.593 0 1.12.05 1.58.15.46.1.863.242 1.208.426a3.203 3.203 0 0 1 1.445 1.528c.147.32.254.663.32 1.03.064.369.097.753.097 1.154zm-2.817.025c0-.287-.043-.565-.128-.835a2.08 2.08 0 0 0-.393-.717 1.904 1.904 0 0 0-.669-.5 2.264 2.264 0 0 0-.957-.188h-.681v4.65h.742c.323 0 .614-.057.872-.174a1.86 1.86 0 0 0 .656-.49 2.2 2.2 0 0 0 .414-.762c.096-.296.144-.624.144-.984zm4.068 4.485v-8.798h5.479v2.073h-2.828v1.283h2.656v2.073h-2.656v1.295h3.03v2.074zm6.945 0v-8.798h2.65v6.724h3.032v2.074zm6.798 0v-8.798h2.65v8.798zm9.406 0h-2.976l-2.84-8.798h2.852l1.344 5.417c.045.184.084.356.117.516.033.16.053.314.06.466h.062c.011-.131.032-.276.06-.436.03-.16.072-.354.13-.583l1.306-5.38h2.761zm3.822 0v-8.798h5.479v2.073h-2.829v1.283h2.657v2.073h-2.657v1.295h3.031v2.074zm12.031 0-1.178-2.166a7.065 7.065 0 0 0-.239-.414 1.916 1.916 0 0 0-.218-.289.765.765 0 0 0-.224-.168.61.61 0 0 0-.264-.055h-.312v3.092h-2.65v-8.798h3.52c1.232 0 2.14.201 2.728.604.587.403.88 1.007.88 1.813 0 .331-.049.629-.147.893a2.318 2.318 0 0 1-1.021 1.214c-.24.142-.5.255-.783.341v.055a2.361 2.361 0 0 1 .696.454c.105.098.207.213.307.344.1.13.204.284.31.46l1.583 2.62zm-.773-6.007c0-.294-.09-.527-.27-.7-.18-.17-.462-.257-.846-.257h-.546v2.013h.478c.205 0 .381-.032.53-.096.15-.063.273-.145.369-.245a.988.988 0 0 0 .215-.337c.047-.125.07-.25.07-.378zm8.97 2.951v3.056h-2.65v-3.019l-2.712-5.78h3.043l.95 2.768c.066.188.112.351.139.49.027.14.056.28.089.424h.025c.024-.172.05-.33.08-.476.029-.145.06-.275.098-.39l.939-2.815h2.803z" font-family="Segoe WP Black" font-size="12.565" font-weight="800" letter-spacing="0" word-spacing="0"></path></g><path fill="#333" fill-rule="evenodd" d="m-1409.836 420.766-1.71 2.36h4.795c.496.021 3.955.246 5.19 2.593h-8.305l-1.714 2.36h10.442a2.97 2.97 0 0 1-.01.129s-.049 5.167-9.463 4.272v1.117l.01 1.212 10.153 11.053h3.865v-.491l-9.741-10.964v-.154s7.667.111 8.936-6.135c0 0 0-.012.005-.04h3.22l1.708-2.36h-5.067c-.19-.864-.58-1.818-1.346-2.592h4.744l1.709-2.36h-17.421z"></path></g></svg>